<svg width="350px" height="366px" viewBox="0 0 350 366" version="1.1" xmlns="http://www.w3.org/2000/svg" xmlns:xlink="http://www.w3.org/1999/xlink">
    <g id="Page-1" stroke="none" stroke-width="1" fill="none" fill-rule="evenodd" opacity="0.2">
        <g id="cake" transform="translate(4.000000, 0.000000)">
            <path d="M111.6,61.599 C110.789,71.016 95.755,76.109 101.6,85.599 C106.087,87.067 105.997,80.405 107.6,77.599 C111.586,70.62 118.616,62.527 131.6,66.599 C143.695,70.392 150.624,88.489 146.6,106.599 C142.162,126.573 111.437,137.412 86.6,130.599 C70.129,126.081 58.199,109.466 62.6,86.599 C63.786,80.441 67.022,70.875 70.6,66.599 C76.968,58.988 97.02,48.832 111.6,61.599 Z" id="Shape" fill="#000000" fill-rule="nonzero"></path>
            <path d="M59.6,77.599 C61.202,78.756 52.246,88.558 48.945,94.278 C44.376,102.193 45.458,103.954 47.78,112.133 C49.515,118.245 50.589,124.559 52.813,130.529 C56.977,141.71 48.249,132.585 45.6,129.599 C39.364,122.571 27.522,108.132 30.272,98.048 C32.028,91.609 55.1,74.349 59.6,77.599 Z" id="Shape" fill="#000000" fill-rule="nonzero"></path>
            <path d="M171.434,101.349 C165.351,99.016 156.517,94.099 155.351,97.016 C153.296,102.154 160.268,100.766 165.934,106.766 C170.823,111.941 167.517,117.349 161.351,123.183 C156.735,127.549 155.517,127.042 151.434,131.933 C143.434,141.516 154.065,137.535 157.684,135.85 C166.202,131.884 190.851,117.767 189.934,110.1 C188.937,101.755 179.551,104.462 171.434,101.349 Z" id="Shape" fill="#000000" fill-rule="nonzero"></path>
            <path d="M118.6,139.599 C118.165,137.742 108.461,140.673 102.1,142.432 C94.267,144.599 89.877,145.583 83.267,140.432 C78.328,136.582 73.501,128.492 68.822,124.332 C64.434,120.432 64.6,125.932 66.845,131.074 C70.491,139.427 79.487,155.208 89.84,156.587 C96.451,157.468 119.822,144.814 118.6,139.599 Z" id="Shape" fill="#000000" fill-rule="nonzero"></path>
            <path d="M126.267,162.932 C37.6,168.932 8.267,141.599 0.934,123.599" id="Shape" stroke="#000000" stroke-width="9" stroke-linecap="round" stroke-linejoin="round"></path>
            <path d="M128.267,359.607 C39.934,365.599 10.267,345.933 0.934,320.274" id="Shape" stroke="#000000" stroke-width="9" stroke-linecap="round" stroke-linejoin="round"></path>
            <path d="M158.979,97.205 L336.266,67.599" id="Shape" stroke="#000000" stroke-width="9" stroke-linecap="round" stroke-linejoin="round"></path>
            <path d="M0.933,123.599 L26.337,119.356" id="Shape" stroke="#000000" stroke-width="9" stroke-linecap="round" stroke-linejoin="round"></path>
            <path d="M336.266,67.599 L126.267,162.932" id="Shape" stroke="#000000" stroke-width="9" stroke-linecap="round" stroke-linejoin="round"></path>
            <path d="M0.933,123.599 L0.933,320.274" id="Shape" stroke="#000000" stroke-width="9" stroke-linecap="round" stroke-linejoin="round"></path>
            <path d="M345.6,123.856 C345.6,125.844 343.989,128.238 342,129.205 L131.867,231.326 C129.879,232.293 128.267,231.465 128.267,229.476 L128.267,188.009 C128.267,186.021 129.879,183.626 131.867,182.659 L342,80.538 C343.988,79.572 345.6,80.401 345.6,82.389 L345.6,123.856 Z" id="Shape" fill="#000000" fill-rule="nonzero"></path>
            <path d="M345.6,191.857 C345.6,193.845 343.989,196.239 342,197.205 L131.867,299.326 C129.879,300.293 128.267,299.465 128.267,297.476 L128.267,256.009 C128.267,254.022 129.879,251.626 131.867,250.659 L342,148.539 C343.988,147.573 345.6,148.402 345.6,150.39 L345.6,191.857 Z" id="Shape" fill="#000000" fill-rule="nonzero"></path>
            <path d="M345.6,255.524 C345.6,257.512 343.989,259.906 342,260.872 L131.867,362.993 C129.879,363.96 128.267,363.132 128.267,361.143 L128.267,319.676 C128.267,317.689 129.879,315.293 131.867,314.326 L342,212.206 C343.988,211.24 345.6,212.068 345.6,214.057 L345.6,255.524 Z" id="Shape" fill="#000000" fill-rule="nonzero"></path>
            <path d="M124.708,11.123 C123.958,10.299 123.584,9.025 124.708,7.452 C126.328,5.184 128.162,2.293 129.577,1.458 C132.499,-0.265 133.548,2.731 134.746,4.829 C135.944,6.927 150.628,31.874 151.827,33.298 C153.318,35.068 152.726,36.519 150.329,38.467 C147.239,40.979 126.73,58.17 123.659,60.867 C120.588,63.564 115.328,62.295 118.789,58.545 C122.385,54.649 138.841,39.479 140.74,37.868 C143.212,35.77 143.212,33.673 141.639,31.8 C140.173,30.055 124.708,11.123 124.708,11.123 Z" id="Shape" fill="#000000" fill-rule="nonzero"></path>
        </g>
    </g>
</svg>
